<svg width="26" height="34" viewBox="0 0 26 34" fill="none" xmlns="http://www.w3.org/2000/svg">
<path d="M7.51157 0.429199C7.50484 0.863938 7.50282 1.2983 7.49954 1.73346L7.49713 1.91634L7.31425 1.92356C6.88031 1.93781 6.44437 1.94268 6.00758 1.94522C5.98388 6.36349 5.99699 10.7799 5.99555 15.1972V15.3873L5.80544 15.3897C5.43873 15.3935 5.06972 15.397 4.70092 15.4065L4.50119 15.4113L4.5036 15.2116C4.51114 14.7799 4.50793 14.3486 4.49879 13.9194C3.00008 13.9069 1.49995 13.8992 0.00125335 13.9242C0.00317845 15.4171 -0.00163431 16.9095 0.00125335 18.4025C0.435696 18.4108 0.875337 18.4311 1.31515 18.4001L1.55578 18.3832L1.51968 18.6214C1.45674 19.0526 1.49879 19.4888 1.50043 19.9209C1.9151 19.9426 2.33259 19.9467 2.75175 19.9474H2.92982L2.94426 20.1254C3.01381 21.0484 2.97938 21.9751 2.99479 22.9024C3.42548 22.92 3.859 22.927 4.29184 22.9313L4.47953 22.9337L4.48194 23.1214C4.48887 24.0473 4.48677 24.9727 4.50119 25.8983C4.93591 25.9052 5.37368 25.9273 5.81267 25.9008L6.03405 25.8887L6.0172 26.1077C5.94413 27.0332 6.00749 27.9663 6.00036 28.8943C6.42372 28.9027 6.84665 28.9087 7.27093 28.9111H7.46103L7.46344 29.1012C7.4821 30.5308 7.47291 31.9615 7.49232 33.3918C9.9603 33.4274 12.4302 33.4308 14.8992 33.4279C17.4268 33.4241 19.954 33.4452 22.4817 33.3846C22.4413 31.9586 22.569 30.5334 22.5106 29.1085L22.5033 28.9039L22.7079 28.9087C23.1321 28.9207 23.557 28.9123 23.9784 28.8991C23.9941 27.4809 23.9959 26.0606 23.9977 24.6422V24.4666L24.171 24.4497C24.6017 24.4085 25.0362 24.4054 25.4728 24.4088C25.4834 22.8202 25.4538 21.2327 25.5017 19.6442V19.6393V19.6345C25.449 17.7264 25.4863 15.8164 25.4632 13.9073C25.035 13.9107 24.6079 13.9062 24.183 13.9001L23.9977 13.8977L23.9929 13.7124C23.9843 13.2914 23.9789 12.8679 23.9857 12.4443C23.5463 12.4314 23.1097 12.4452 22.6742 12.4202L22.5057 12.4106L22.4937 12.2421C22.4628 11.8044 22.478 11.3622 22.4721 10.9186C21.5407 10.915 20.6103 10.9226 19.6807 10.909L19.493 10.9066L19.4905 10.7189C19.4833 10.2985 19.4783 9.87801 19.4833 9.45554C18.0547 9.37991 16.6222 9.42886 15.1927 9.41222L15.0099 9.40982L15.0026 9.22934C14.9831 8.79642 14.9752 8.36229 14.9762 7.92508C14.0468 7.92057 13.1177 7.92804 12.1896 7.90823L12.0043 7.90342L12.0019 7.71813C11.9835 5.79491 11.994 3.87107 11.9874 1.94763C11.7396 1.94522 11.4917 1.9433 11.2439 1.94281C11.0591 1.94246 10.875 1.9433 10.6904 1.94522L10.4931 1.94763L10.4955 1.7503C10.5021 1.30892 10.5013 0.86731 10.4594 0.429199C9.4766 0.432087 8.49433 0.434975 7.51157 0.429199H7.51157Z" fill="white"/>
<path d="M7.51068 0.428711C8.49345 0.434486 9.47622 0.432561 10.459 0.429674C10.5061 0.922501 10.5042 1.41822 10.4946 1.91201C9.49547 1.92163 8.4973 1.90912 7.49817 1.92163C7.50202 1.42399 7.50298 0.926351 7.51068 0.428711Z" fill="black"/>
<path d="M6.00716 1.94473C6.50384 1.94184 7.00148 1.94281 7.49816 1.92163C7.49912 7.41684 7.50778 12.9121 7.50201 18.4073C7.00148 18.4188 6.50095 18.4188 6.00043 18.4082C5.9908 17.9164 5.9908 17.4235 5.99754 16.9307C5.4999 16.9115 5.00226 16.9144 4.50462 16.9163C4.48826 16.4138 4.48441 15.9104 4.50366 15.408C5.00033 15.3897 5.49797 15.3954 5.99561 15.3877C5.99754 10.9071 5.9831 6.42638 6.00716 1.94473Z" fill="black"/>
<path d="M10.5004 1.94684C10.9961 1.9401 11.4918 1.94299 11.9875 1.9478C11.9943 3.93451 11.9808 5.92218 12.002 7.90889C12.9934 7.93488 13.9848 7.92044 14.9763 7.92525C14.9753 8.42097 14.9763 8.91668 15.0051 9.4124C16.4971 9.43646 17.9919 9.37678 19.4829 9.45571C19.4771 9.93988 19.48 10.424 19.4906 10.9082C20.484 10.9265 21.4783 10.9149 22.4726 10.9188C22.4794 11.4164 22.4476 11.917 22.5005 12.4127C22.9943 12.456 23.49 12.43 23.9848 12.4444C23.9771 12.9296 23.9809 13.4147 23.9934 13.8998C24.4824 13.9085 24.9724 13.9123 25.4633 13.9085C25.4864 15.8191 25.4488 17.7298 25.5018 19.6395C25.4536 21.2297 25.4825 22.8198 25.4719 24.4099C24.9791 24.4061 24.4863 24.4042 23.9973 24.4648C23.9954 25.9423 23.9944 27.4208 23.978 28.8983C23.4871 28.9137 22.9953 28.9301 22.5053 28.906C22.4495 27.4025 22.4755 25.8971 22.4899 24.3926C22.9837 24.3974 23.4785 24.3974 23.9732 24.3936C23.9742 20.8995 23.9771 17.4064 23.979 13.9123C23.4852 13.9056 22.9914 13.9066 22.4976 13.9123C22.4697 13.4262 22.5015 12.9373 22.462 12.4521C21.9721 12.3578 21.4716 12.4156 20.9768 12.4136C20.9662 13.9123 20.9941 15.411 20.9643 16.9107C20.4753 16.9116 19.9854 16.9116 19.4964 16.9126C19.4627 14.9134 19.4974 12.9142 19.4849 10.9149C18.4828 10.9092 17.4808 10.9121 16.4798 10.9149C16.4798 12.4127 16.4952 13.9104 16.4778 15.4072C15.9812 15.4178 15.4854 15.4178 14.9897 15.4081C14.9801 13.4108 14.9782 11.4126 15.0022 9.41528C13.9993 9.41047 12.9972 9.40951 11.9943 9.42106C11.9837 11.4164 12.002 13.4118 11.9943 15.4072C11.4928 15.4216 10.9903 15.4226 10.4888 15.4081C10.4888 10.9217 10.4917 6.43426 10.5004 1.94684Z" fill="black"/>
<path d="M0.00178816 13.9237C1.50048 13.8987 3.00014 13.9064 4.49884 13.9189C4.50942 14.4156 4.51809 14.9113 4.50365 15.408C3.50933 15.4311 2.51501 15.4138 1.52166 15.4215C1.48508 16.411 1.5746 17.4034 1.50722 18.3919C1.00669 18.4497 0.502315 18.4112 0.000824672 18.4015C-0.00206299 16.9086 0.00371327 15.4166 0.00178816 13.9237Z" fill="black"/>
<path d="M1.5476 18.4255C2.02887 18.3513 2.51785 18.3793 3.00298 18.3927C3.01357 18.8923 3.01453 19.3928 3.00972 19.8934C3.51024 19.8962 4.00981 19.8953 4.51034 19.902C4.52189 20.8983 4.51033 21.8945 4.51611 22.8907C5.0099 22.8879 5.50465 22.8888 5.9994 22.8955C5.99267 23.8947 6.06389 24.9015 5.96186 25.8958C5.47481 25.9401 4.9868 25.9055 4.50071 25.8978C4.48531 24.9102 4.48723 23.9226 4.47857 22.935C3.98382 22.9321 3.48907 22.9235 2.99431 22.9033C2.97795 21.9195 3.02608 20.9339 2.93656 19.953C2.45817 19.955 1.97882 19.9463 1.50139 19.9213C1.49947 19.4227 1.43402 18.9164 1.5476 18.4255Z" fill="black"/>
<path d="M6.03009 25.9026C6.51906 25.8641 7.01093 25.8872 7.50183 25.8901C7.51531 26.8844 7.50279 27.8788 7.50568 28.8721C8.00428 28.8702 8.50481 28.8702 9.00438 28.8875C9.014 29.8818 8.99571 30.8771 9.01015 31.8714C12.9961 31.881 16.982 31.8791 20.9679 31.8772C20.9833 30.8819 20.9641 29.8866 20.9747 28.8904C21.4848 28.8837 21.995 28.8769 22.5051 28.9058C22.586 30.3977 22.4397 31.8907 22.482 33.3845C19.9544 33.4452 17.4267 33.4231 14.899 33.4269C12.4301 33.4298 9.96115 33.4269 7.49317 33.3913C7.47295 31.8984 7.48354 30.4055 7.46141 28.9135C6.97435 28.9125 6.4873 28.9048 6.00025 28.8952C6.00795 27.898 5.92806 26.8941 6.03009 25.9026Z" fill="black"/>
</svg>
